# xmcd
#
# Track frame offsets:
#	150
#	18274
#	32030
#	47992
#	61672
#	78131
#	96125
#	113287
#	129723
#	146063
#	161648
#	178544
#	192781
#	205348
#
# Disc length: 2890 seconds
#
# Revision: 0
# Processed by: cddbd v1.5.1PL2 Copyright (c) Steve Scherf et al.
# Submitted via: dBpowerAMP V4.0
#
DISCID=b20b480e
DTITLE=Nick Mc Alley - Wanna Stay Connected
DYEAR=1900
DGENRE=Country
TTITLE0=This Hat
TTITLE1=Navajo Rug
TTITLE2=Boulevard Of Love
TTITLE3=Holding Up The Sky
TTITLE4=If I Was God
TTITLE5=Connected
TTITLE6=I'm Allright/I'm Okay
TTITLE7=Whatever Happened to the Quickstep
TTITLE8=If I Ain't Country
TTITLE9=Cassiopeia
TTITLE10=Orangutan Song
TTITLE11=Song for my Friends
TTITLE12=Eighty Miles An Hour
TTITLE13=Happy Holland
EXTD=
EXTT0=
EXTT1=
EXTT2=
EXTT3=
EXTT4=
EXTT5=
EXTT6=
EXTT7=
EXTT8=
EXTT9=
EXTT10=
EXTT11=
EXTT12=
EXTT13=
PLAYORDER=
